Coordinates
version=1
nRows=30
nColumns=33
inDegrees=yes

Units are S.I. units (second, meters, Newtons, ...)
Angles are in degrees.

endheader
time	ground_thorax_rot_x	ground_thorax_rot_y	ground_thorax_rot_z	ground_thorax_tx	ground_thorax_ty	ground_thorax_tz	clav_prot_r	clav_elev_r	scapula_abduction_r	scapula_elevation_r	scapula_upward_rot_r	scapula_winging_r	shoulder_elv_r	plane_of_elev_r	axial_rot_r	elbow_flexion_r	pro_sup_r	wrist_flex_r	wrist_dev_r	clav_prot_l	clav_elev_l	scapula_abduction_l	scapula_elevation_l	scapula_upward_rot_l	scapula_winging_l	shoulder_elv_l	plane_of_elev_l	axial_rot_l	elbow_flexion_l	pro_sup_l	wrist_flex_l	wrist_dev_l	
9.8100	-37.864632	-3.789262	5.087431	-4.876452	805.212123	1.325411	-6.233583	-45.000000	45.000000	-45.000000	26.502575	-2625.573665	-2101.319912	19.383677	-180.000000	1804.373776	-95.194513	14.672432	10.819963	15.731071	39.417282	-44.999999	-38.236890	-25.426253	1155.834139	-1540.682873	135.501530	-179.999999	1085.000981	18.036541	13.375618	-18.536867	
9.8200	-37.900562	-3.802276	5.023282	-5.499540	805.090543	1.303431	-6.233682	-45.000000	45.000000	-45.000000	26.573884	-2625.670939	-2101.242119	19.378341	-180.000000	1804.306560	-94.329570	14.722317	10.804221	15.720337	39.484650	-44.999997	-38.270030	-25.340200	1155.939439	-1540.679066	135.510219	-179.999998	1084.928369	18.374673	13.205611	-18.563132	
9.8300	-37.928588	-3.819143	4.975926	-6.224632	804.962928	1.276894	-6.203143	-45.000000	45.000000	-45.000000	26.641642	-2625.789200	-2101.137010	19.403495	-180.000000	1804.256304	-93.540495	14.814519	10.774124	15.729999	39.574506	-44.999995	-38.285418	-25.251705	1156.072499	-1540.672475	135.531605	-179.999997	1084.856962	18.696382	12.958233	-18.589848	
9.8400	-37.976771	-3.838890	4.927721	-7.166448	804.828979	1.241563	-6.200820	-45.000000	45.000000	-45.000000	26.722027	-2625.917714	-2101.006894	19.418795	-180.000000	1804.224722	-92.870673	14.863103	10.759590	15.734396	39.652326	-44.999991	-38.365750	-25.225447	1156.206195	-1540.674486	135.542593	-179.999994	1084.801013	19.020639	12.755991	-18.620682	
9.8500	-38.039738	-3.860110	4.887964	-8.342876	804.682297	1.194506	-6.201156	-45.000000	45.000000	-45.000000	26.789360	-2626.060066	-2100.852108	19.429769	-180.000000	1804.198933	-92.344451	14.885699	10.750799	15.745091	39.756509	-44.999985	-38.500691	-25.271098	1156.334361	-1540.674793	135.554687	-179.999990	1084.770327	19.335204	12.574587	-18.655103	
9.8600	-38.116222	-3.885972	4.861956	-9.787457	804.517360	1.131554	-6.196035	-45.000000	45.000000	-45.000000	26.840732	-2626.224618	-2100.667465	19.441834	-180.000000	1804.187721	-91.976419	14.898281	10.739500	15.778887	39.864229	-44.999973	-38.681930	-25.387560	1156.464591	-1540.678887	135.566036	-179.999982	1084.752606	19.631665	12.389853	-18.689802	
9.8700	-38.207486	-3.915220	4.849953	-11.507496	804.328626	1.048417	-6.179612	-45.000000	44.999999	-45.000000	26.852871	-2626.402924	-2100.464036	19.446041	-180.000000	1804.176268	-91.758869	14.889925	10.729589	15.830384	40.016645	-44.999951	-38.912505	-25.600733	1156.579185	-1540.668147	135.582094	-179.999966	1084.760818	19.907728	12.227773	-18.723437	
9.8800	-38.310399	-3.949263	4.853544	-13.499172	804.111936	0.940760	-6.140453	-45.000000	44.999999	-45.000000	26.824860	-2626.599674	-2100.240513	19.449907	-180.000000	1804.175420	-91.662646	14.890606	10.709343	15.917032	40.184236	-44.999912	-39.168006	-25.883132	1156.689232	-1540.650694	135.605980	-179.999945	1084.774952	20.158859	12.051479	-18.751846	
9.8900	-38.420986	-4.000959	4.883453	-15.759212	803.865491	0.804478	-6.075251	-45.000000	44.999998	-45.000000	26.723482	-2626.798868	-2100.003621	19.447232	-180.000000	1804.176085	-91.642493	14.884312	10.689726	16.025242	40.389987	-44.999842	-39.448110	-26.288221	1156.776988	-1540.601755	135.637369	-179.999886	1084.805380	20.397594	11.896855	-18.773353	
9.9000	-38.536152	-4.078521	4.946426	-18.285454	803.589074	0.636236	-5.977418	-45.000000	44.999996	-45.000000	26.558833	-2627.015860	-2099.752833	19.450603	-180.000000	1804.192416	-91.643262	14.899305	10.663282	16.165704	40.597279	-44.999717	-39.734208	-26.800604	1156.866904	-1540.532739	135.667326	-179.999840	1084.834692	20.627645	11.728343	-18.784649	
9.9100	-38.652279	-4.183647	5.043788	-21.076222	803.283487	0.433871	-5.851285	-45.000000	44.999993	-45.000000	26.326317	-2627.248600	-2099.493032	19.459742	-180.000000	1804.215912	-91.602823	14.929095	10.636007	16.323429	40.816750	-44.999494	-40.024281	-27.439641	1156.956359	-1540.432654	135.689886	-179.999805	1084.871520	20.857366	11.568189	-18.786671	
9.9200	-38.770282	-4.306352	5.163499	-24.130080	802.950052	0.196603	-5.703782	-45.000000	44.999988	-45.000000	26.048844	-2627.507741	-2099.228993	19.474710	-180.000000	1804.243384	-91.454867	14.987148	10.597941	16.501867	41.005180	-44.999093	-40.318023	-28.162766	1157.057687	-1540.331705	135.699364	-179.999822	1084.907018	21.087722	11.406403	-18.782777	
9.9300	-38.883898	-4.444607	5.305089	-27.445564	802.590333	-0.074967	-5.536690	-45.000000	44.999979	-45.000000	25.713590	-2627.780861	-2098.961470	19.493075	-180.000000	1804.266658	-91.137062	15.066476	10.552472	16.688049	41.161728	-44.998375	-40.610552	-28.978114	1157.160471	-1540.221433	135.698159	-179.999844	1084.945717	21.322775	11.264942	-18.777245	
9.9400	-38.995018	-4.593714	5.461184	-31.020367	802.206050	-0.378961	-5.353605	-45.000000	44.999962	-45.000000	25.326154	-2628.072783	-2098.697690	19.514866	-180.000000	1804.279757	-90.596713	15.167911	10.493908	16.890078	41.268007	-44.997089	-40.908011	-29.856681	1157.270240	-1540.126687	135.685518	-179.999906	1084.983790	21.559821	11.145506	-18.775369	
9.9500	-39.096392	-4.768329	5.648069	-34.850949	801.799076	-0.712458	-5.142701	-45.000000	44.999932	-45.000000	24.822723	-2628.362542	-2098.440329	19.544735	-180.000000	1804.278321	-89.784017	15.282498	10.421330	17.132275	41.316587	-44.994785	-41.199887	-30.808986	1157.371767	-1540.039990	135.681009	-179.999957	1085.020898	21.789583	11.067741	-18.787721	
9.9600	-39.186982	-4.968707	5.862976	-38.931529	801.371596	-1.071723	-4.899307	-45.000000	44.999878	-45.000000	24.195946	-2628.647294	-2098.193302	19.583088	-180.000000	1804.257475	-88.678858	15.407480	10.334579	17.416294	41.315379	-44.990659	-41.491188	-31.826429	1157.461146	-1539.975382	135.688432	-180.000000	1085.058873	22.012920	11.030533	-18.817337	
9.9700	-39.269735	-5.184237	6.097340	-43.254025	800.926257	-1.452536	-4.641374	-45.000000	44.999782	-45.000000	23.502549	-2628.938515	-2097.944116	19.622922	-180.000000	1804.234173	-87.311203	15.544647	10.244284	17.713614	41.294003	-44.983268	-41.775701	-32.916443	1157.529888	-1539.902768	135.703951	-180.000000	1085.102723	22.254181	11.013076	-18.859231	
9.9800	-39.342695	-5.427969	6.360265	-47.807786	800.466473	-1.850470	-4.352856	-45.000000	44.999609	-45.000000	22.721725	-2629.244384	-2097.701677	19.671944	-180.000000	1804.205606	-85.717060	15.691112	10.152311	18.024815	41.258652	-44.970030	-42.054087	-34.081335	1157.592263	-1539.836187	135.719846	-180.000000	1085.154144	22.526586	11.005699	-18.914566	
9.9900	-39.410385	-5.689871	6.638388	-52.580060	799.996718	-2.261328	-4.040267	-45.000000	44.999299	-45.000000	21.874935	-2629.566732	-2097.468048	19.723481	-180.000000	1804.175631	-83.952582	15.844945	10.062477	18.334433	41.213660	-44.946309	-42.324025	-35.293166	1157.650887	-1539.768812	135.738239	-180.000000	1085.221081	22.850021	11.001637	-18.985188	
10.0000	-39.471331	-5.986094	6.938750	-57.555790	799.522792	-2.681269	-3.676377	-45.000000	44.998744	-45.000000	20.912800	-2629.892545	-2097.257093	19.775398	-180.000000	1804.132711	-82.056627	16.003991	9.972291	18.638734	41.157596	-44.903840	-42.597029	-36.552918	1157.696244	-1539.716270	135.763795	-180.000000	1085.299613	23.228204	11.005584	-19.072363	
10.0100	-39.533890	-6.295820	7.235363	-62.718050	799.051955	-3.106933	-3.297332	-45.000000	44.997751	-45.000000	19.930403	-2630.236605	-2097.058154	19.814583	-180.000000	1804.093861	-80.100066	16.169216	9.891264	18.896021	41.098118	-44.827703	-42.879443	-37.822491	1157.723318	-1539.665479	135.787695	-180.000000	1085.393236	23.687773	11.000328	-19.168656	
10.0200	-39.591298	-6.662725	7.567141	-68.048034	798.592986	-3.535173	-2.862373	-45.000000	44.995971	-45.000000	18.804828	-2630.569560	-2096.885998	19.847785	-180.000000	1804.051564	-78.096759	16.331774	9.813930	19.133732	41.017268	-44.691498	-43.182418	-39.122767	1157.706924	-1539.622057	135.821594	-180.000000	1085.493277	24.218967	11.005344	-19.281121	
10.0300	-39.638854	-7.092580	7.930660	-73.525488	798.156308	-3.963081	-2.384774	-45.000000	44.992783	-45.000000	17.561002	-2630.881114	-2096.730122	19.868081	-180.000000	1804.013295	-76.069881	16.492389	9.741945	19.310462	40.915879	-44.447016	-43.506547	-40.422982	1157.626858	-1539.562533	135.859204	-180.000000	1085.602891	24.829894	11.021390	-19.408533	
10.0400	-39.671653	-7.596479	8.333664	-79.128524	797.753954	-4.387697	-1.859889	-45.000000	44.987073	-45.000000	16.173601	-2631.161028	-2096.594371	19.881487	-180.000000	1803.979496	-74.019607	16.643878	9.677481	19.416074	40.791297	-44.065597	-43.854929	-41.684368	1157.457500	-1539.491242	135.920219	-180.000000	1085.713103	25.520639	11.056383	-19.554469	
10.0500	-39.691802	-8.123796	8.718426	-84.834251	797.399701	-4.806308	-1.329246	-45.000000	44.976844	-45.000000	14.777693	-2631.416160	-2096.462660	19.882697	-180.000000	1803.964098	-71.981620	16.797415	9.623690	19.384160	40.663794	-43.535433	-44.196466	-42.797368	1157.243671	-1539.404058	135.981353	-180.000000	1085.822779	26.321183	11.098119	-19.711936	
10.0600	-39.696011	-8.657884	9.077087	-90.619176	797.108774	-5.216479	-0.778226	-45.000000	44.958520	-45.000000	13.333720	-2631.627113	-2096.342589	19.882453	-180.000000	1803.961465	-69.953738	16.950711	9.575058	19.252209	40.521631	-42.885775	-44.499918	-43.703807	1157.022314	-1539.328997	136.060065	-180.000000	1085.923199	27.234722	11.160103	-19.890489	
10.0700	-39.686975	-9.148886	9.361735	-96.459797	796.897860	-5.616813	-0.229937	-45.000000	44.925701	-45.000000	11.917970	-2631.788803	-2096.227718	19.877173	-180.000000	1803.967533	-67.946167	17.115730	9.526237	19.011647	40.374498	-42.157865	-44.730870	-44.349944	1156.851434	-1539.278190	136.143573	-180.000000	1086.016665	28.279035	11.238489	-20.089623	
10.0800	-39.671618	-9.568202	9.564010	-102.332366	796.783726	-6.006411	0.279894	-45.000000	44.866899	-45.000000	10.590446	-2631.921150	-2096.107586	19.868889	-180.000000	1803.987851	-65.977517	17.279518	9.485731	18.716324	40.216032	-41.416307	-44.888079	-44.746106	1156.736883	-1539.274630	136.256638	-180.000000	1086.102065	29.458646	11.316296	-20.309876	
10.0900	-39.657528	-9.894469	9.670676	-108.213394	796.783198	-6.385579	0.728327	-45.000000	44.761607	-45.000000	9.368075	-2632.018712	-2095.982827	19.855365	-180.000000	1804.018592	-64.070154	17.452231	9.447133	18.376213	40.059824	-40.702507	-44.968242	-44.933605	1156.710697	-1539.311256	136.372684	-180.000000	1086.184131	30.771968	11.386893	-20.547500	
10.1000	-39.648526	-10.146251	9.724070	-114.078448	796.911797	-6.754391	1.105361	-45.000000	44.572886	-45.000000	8.180188	-2632.071563	-2095.855848	19.841829	-180.000000	1804.062916	-62.229206	17.624171	9.414188	18.043913	39.900872	-40.034620	-44.997438	-44.991391	1156.739130	-1539.376894	136.501584	-180.000000	1086.265374	32.198523	11.440593	-20.802214	
